/* XPM */
static char * tknotepadicon_xpm[] = {
"32 32 64 1",
" 	c None",
".	c #FF2323",
"+	c #000000",
"@	c #710F0F",
"#	c #FFFFFF",
"$	c #FFCE9D",
"%	c #AA1717",
"&	c #FF7B46",
"*	c #FF9E7B",
"=	c #FFB58B",
"-	c #550B0B",
";	c #FFE6E6",
">	c #FFCECE",
",	c #FF8000",
"'	c #FFA858",
")	c #FFDCA8",
"!	c #FFE6AE",
"~	c #C61B1B",
"{	c #FF3C3C",
"]	c #FFFFC0",
"^	c #C05800",
"/	c #FF604F",
"(	c #FF8585",
"_	c #FF6B07",
":	c #FF402E",
"<	c #F02E1B",
"[	c #FF560F",
"}	c #FF9D7A",
"|	c #D5460B",
"1	c #FF6C6C",
"2	c #FF8569",
"3	c #1C0303",
"4	c #FF5454",
"5	c #FFB5B5",
"6	c #380707",
"7	c #CD4C07",
"8	c #FFC799",
"9	c #8D1313",
"0	c #FF5446",
"a	c #FF755E",
"b	c #FF9D9D",
"c	c #FF3C34",
"d	c #E21F1F",
"e	c #EA3417",
"f	c #C0C0C0",
"g	c #FFFF00",
"h	c #C0C000",
"i	c #808080",
"j	c #404000",
"k	c #004040",
"l	c #004000",
"m	c #A0A0A4",
"n	c #D58B0B",
"o	c #C6AE03",
"p	c #FF6C57",
"q	c #E93E3F",
"r	c #AA6161",
"s	c #CD9D07",
"t	c #F0461B",
"u	c #BF7679",
"v	c #55360B",
"w	c #E23737",
"x	c #D44242",
"y	c #B85656",
"                                ",
"                                ",
"                                ",
"          .                     ",
"   ........  +    +++           ",
"  ............@+ +#$#++         ",
" .%&*=- .  +#;##+#>.###++       ",
"  +,')!~  +####+#;{.###]#++     ",
"  +^,'/=++####+##(.(######]++   ",
"   +^_:)]+###+##;.{;#]##]####++ ",
"    +<[')]+#+]##({;+}(#####]###+",
"     .|,')]+###;{!+1.%]#######+ ",
"     .%^,')]+!]2;345>#++]###]+  ",
"    6..%7,'8}9]131.>####++##+   ",
"   +]0......a]-.b;{c;;5###++    ",
"  +]]!2d..e_')$d##5..(#]####++  ",
" +]]]]+]]]+^,')f+##>>#######]#+ ",
"+gg]]+]]]]]+^,ff+hh############+",
"+igggjkh]]]j+ffi+##hh#########+i",
" +ligggjlhj#]++++###]hh######+i ",
"   ++igggl##h]]##hh]###hh##]+m  ",
"     ++i+]###hh#]##hh]##]##+m   ",
"      ++]#h]##]hh]###hh#]]+i    ",
"      +]]$]hh##]]hh#####]-m     ",
" . . 3=]$0=]]no>cp1hn5#!-q      ",
" ... %r0$0=]0=pst=4>}25~u.      ",
" . .  +~ip]$.pp$0no(10vw .      ",
" . .  . +9x$$pp$p}]=p9y ..      ",
"          ++m]]]]]]]li          ",
"            ++i]]]]+i           ",
"              +lii+m            ",
"                ++m             "};
