/* XPM */
static char * tknotepadiconW_xpm[] = {
"48 48 404 2",
"  	c None",
". 	c #B0B4B0",
"+ 	c #D0C8C0",
"@ 	c #787470",
"# 	c #887C78",
"$ 	c #FF0000",
"% 	c #F61414",
"& 	c #CEB5B2",
"* 	c #B8A490",
"= 	c #704028",
"- 	c #401C08",
"; 	c #686868",
"> 	c #905C38",
", 	c #903020",
"' 	c #280C00",
") 	c #A09C98",
"! 	c #C8CCC8",
"~ 	c #E0E0E0",
"{ 	c #989898",
"] 	c #989C98",
"^ 	c #CD9289",
"/ 	c #582C10",
"( 	c #502008",
"_ 	c #482008",
": 	c #707470",
"< 	c #281C08",
"[ 	c #D71313",
"} 	c #D72D2D",
"| 	c #EC4442",
"1 	c #DF140A",
"2 	c #8F1D0A",
"3 	c #7C1F0C",
"4 	c #382010",
"5 	c #888888",
"6 	c #606468",
"7 	c #403C28",
"8 	c #504C50",
"9 	c #F63030",
"0 	c #DC3130",
"a 	c #B41003",
"b 	c #7F1810",
"c 	c #202028",
"d 	c #808080",
"e 	c #BF110A",
"f 	c #585868",
"g 	c #C71E20",
"h 	c #F63132",
"i 	c #701806",
"j 	c #D8CC58",
"k 	c #584838",
"l 	c #9D3131",
"m 	c #CD9895",
"n 	c #484850",
"o 	c #942323",
"p 	c #82141A",
"q 	c #202430",
"r 	c #101010",
"s 	c #686460",
"t 	c #D0D0D0",
"u 	c #D0D4D8",
"v 	c #B8BCC0",
"w 	c #D0D0D8",
"x 	c #C8CCD0",
"y 	c #684C30",
"z 	c #401808",
"A 	c #E0D468",
"B 	c #C8AC58",
"C 	c #6F1205",
"D 	c #C8C8C8",
"E 	c #E0D0B8",
"F 	c #909090",
"G 	c #383840",
"H 	c #5D252B",
"I 	c #B40A0D",
"J 	c #181410",
"K 	c #404448",
"L 	c #C0C8C8",
"M 	c #B8BCB8",
"N 	c #909898",
"O 	c #B8B8B8",
"P 	c #B8C0C0",
"Q 	c #603818",
"R 	c #F0E460",
"S 	c #9C5931",
"T 	c #E70506",
"U 	c #C0C4C0",
"V 	c #A07C50",
"W 	c #784018",
"X 	c #989490",
"Y 	c #303038",
"Z 	c #38202A",
"` 	c #E50304",
" .	c #E50405",
"..	c #181C18",
"+.	c #404040",
"@.	c #A8ACB0",
"#.	c #E0E8E8",
"$.	c #E0E4E8",
"%.	c #989CA0",
"&.	c #A8A8A8",
"*.	c #D8D8D8",
"=.	c #502810",
"-.	c #301000",
";.	c #D8B888",
">.	c #D90903",
",.	c #C0BCB0",
"'.	c #A07450",
").	c #703818",
"!.	c #B40C10",
"~.	c #50181F",
"{.	c #202020",
"].	c #909490",
"^.	c #E8ECF0",
"/.	c #E8E8E8",
"(.	c #D8E0E0",
"_.	c #D8DCE0",
":.	c #D0D8D8",
"<.	c #C0C4C8",
"[.	c #A8A4A8",
"}.	c #381400",
"|.	c #D3502C",
"1.	c #804420",
"2.	c #585C60",
"3.	c #87161A",
"4.	c #970C0A",
"5.	c #808888",
"6.	c #F0F0F0",
"7.	c #E8F0F0",
"8.	c #402418",
"9.	c #F1CA55",
"0.	c #E8ECE8",
"a.	c #E0B088",
"b.	c #D0C0B8",
"c.	c #A8B0B0",
"d.	c #3F232A",
"e.	c #ED0B0B",
"f.	c #E3CACE",
"g.	c #906438",
"h.	c #ED5B27",
"i.	c #F8E8D8",
"j.	c #F8FCF8",
"k.	c #D61011",
"l.	c #F6878A",
"m.	c #F0F4F8",
"n.	c #A8ACA8",
"o.	c #B0B4B8",
"p.	c #A0A4A0",
"q.	c #E3BC5C",
"r.	c #A08878",
"s.	c #FAA8A5",
"t.	c #EACECE",
"u.	c #B0B8B8",
"v.	c #FB3215",
"w.	c #DC3432",
"x.	c #F8F8F8",
"y.	c #C89060",
"z.	c #603010",
"A.	c #FE1C1C",
"B.	c #E23938",
"C.	c #D8DCD8",
"D.	c #EDA889",
"E.	c #BF0802",
"F.	c #BC4B4B",
"G.	c #808480",
"H.	c #B0B0B0",
"I.	c #F8652A",
"J.	c #DF3432",
"K.	c #482818",
"L.	c #D0C8A8",
"M.	c #884C28",
"N.	c #FC5452",
"O.	c #BA6565",
"P.	c #A0A4A8",
"Q.	c #A0A0A0",
"R.	c #C6AEAA",
"S.	c #AD2023",
"T.	c #F8F4F0",
"U.	c #FAA5A5",
"V.	c #A0A8A8",
"W.	c #F46232",
"X.	c #E60300",
"Y.	c #AA8E8E",
"Z.	c #BC0A05",
"`.	c #F8ECE0",
" +	c #953112",
".+	c #FC5252",
"++	c #F20B06",
"@+	c #3F201C",
"#+	c #B1999C",
"$+	c #E23838",
"%+	c #CC2120",
"&+	c #BA0500",
"*+	c #B70500",
"=+	c #AF403E",
"-+	c #E8D8B0",
";+	c #AA2D15",
">+	c #F1D9DC",
",+	c #687070",
"'+	c #DA888A",
")+	c #E46F5D",
"!+	c #8F2B12",
"~+	c #B8A09C",
"{+	c #F51314",
"]+	c #200C00",
"^+	c #787C78",
"/+	c #9C08CE",
"(+	c #E16966",
"_+	c #BD0589",
":+	c #D3035B",
"<+	c #FD1B1C",
"[+	c #C6B2B2",
"}+	c #EA4142",
"|+	c #FC190C",
"1+	c #E64C27",
"2+	c #B8A0A3",
"3+	c #F51414",
"4+	c #AA9195",
"5+	c #281000",
"6+	c #F1D5CE",
"7+	c #A707B6",
"8+	c #E9012D",
"9+	c #F86B6B",
"0+	c #957979",
"a+	c #AC5797",
"b+	c #C73A64",
"c+	c #D58285",
"d+	c #BB8689",
"e+	c #C1371F",
"f+	c #CF7A7A",
"g+	c #EB2627",
"h+	c #909498",
"i+	c #402C18",
"j+	c #F82E29",
"k+	c #F10F0F",
"l+	c #DA3232",
"m+	c #F24A4A",
"n+	c #E2393A",
"o+	c #D42A2A",
"p+	c #E72223",
"q+	c #DE0244",
"r+	c #B56260",
"s+	c #888C90",
"t+	c #E9594B",
"u+	c #EC0501",
"v+	c #866A6A",
"w+	c #D76666",
"x+	c #CA5B5D",
"y+	c #282420",
"z+	c #A475B4",
"A+	c #EDB8B5",
"B+	c #F40016",
"C+	c #B038A6",
"D+	c #9E6DAF",
"E+	c #795C84",
"F+	c #BFA3A3",
"G+	c #BA686A",
"H+	c #301408",
"I+	c #570C00",
"J+	c #BA0D0A",
"K+	c #A38A87",
"L+	c #AE7DBF",
"M+	c #B2069F",
"N+	c #9A3ABE",
"O+	c #C3B6C8",
"P+	c #C80471",
"Q+	c #A22FC9",
"R+	c #B4A4BA",
"S+	c #C78F8F",
"T+	c #C55454",
"U+	c #C15454",
"V+	c #D40B07",
"W+	c #CE0300",
"X+	c #3F0A00",
"Y+	c #BA4AC9",
"Z+	c #E41008",
"`+	c #FC1A1A",
" @	c #C55654",
".@	c #A02FC9",
"+@	c #A978BA",
"@@	c #AC36C7",
"#@	c #E41E1E",
"$@	c #A432CC",
"%@	c #A230CA",
"&@	c #B70400",
"*@	c #B252D6",
"=@	c #8F1A7B",
"-@	c #A6078A",
";@	c #E73D3D",
">@	c #F75050",
",@	c #E33E6B",
"'@	c #A25EB8",
")@	c #902EB1",
"!@	c #8E5D9F",
"~@	c #98A0A0",
"{@	c #BEA0CF",
"]@	c #B20605",
"^@	c #C19BB5",
"/@	c #A846CC",
"(@	c #DF3535",
"_@	c #6F0800",
":@	c #080C08",
"<@	c #A241C4",
"[@	c #AA35A9",
"}@	c #8E10A3",
"|@	c #302820",
"1@	c #A421D0",
"2@	c #9A38BC",
"3@	c #A432CA",
"4@	c #AE80C4",
"5@	c #BE88C4",
"6@	c #7A2B99",
"7@	c #B89AC9",
"8@	c #821111",
"9@	c #C56CD2",
"0@	c #602039",
"a@	c #B554D6",
"b@	c #8A28AC",
"c@	c #D18B97",
"d@	c #9C2AC3",
"e@	c #BCAFC8",
"f@	c #A584B0",
"g@	c #D8C8DE",
"h@	c #950CB8",
"i@	c #511D1D",
"j@	c #98889D",
"k@	c #B191BC",
"l@	c #787878",
"m@	c #A936D0",
"n@	c #C4A7D5",
"o@	c #AD4AD1",
"p@	c #991AAC",
"q@	c #B485CA",
"r@	c #A01DCD",
"s@	c #A767C1",
"t@	c #100400",
"u@	c #CEA0DF",
"v@	c #A117C1",
"w@	c #D1B6E2",
"x@	c #BA6AD9",
"y@	c #B361D2",
"z@	c #3B121D",
"A@	c #9E2AC5",
"B@	c #9F1CCB",
"C@	c #9465A4",
"D@	c #282C30",
"E@	c #000000",
"F@	c #6D2439",
"G@	c #D1C4DE",
"H@	c #C492D4",
"I@	c #6D596C",
"J@	c #BA61C4",
"K@	c #8D1A96",
"L@	c #88148E",
"M@	c #82108C",
"N@	c #8524A9",
"O@	c #B251D6",
"P@	c #C998DA",
"Q@	c #CAB0DC",
"R@	c #202428",
"S@	c #C686DC",
"T@	c #A31BC6",
"U@	c #780C89",
"V@	c #9927C0",
"W@	c #A937D2",
"X@	c #D1C1D6",
"Y@	c #BA54D4",
"Z@	c #582810",
"`@	c #B194C3",
" #	c #A220D0",
".#	c #A21FCF",
"+#	c #CABDD6",
"@#	c #AA49CE",
"##	c #582408",
"$#	c #B879D3",
"%#	c #B363D2",
"&#	c #AB91BC",
"*#	c #79488A",
"=#	c #AD4CD1",
"-#	c #720989",
";#	c #C4A4D5",
">#	c #390A4A",
",#	c #410E2D",
"'#	c #BA52D1",
")#	c #98249C",
"!#	c #940BB7",
"~#	c #3E0D4F",
"{#	c #4E0D44",
"]#	c #6A098C",
"^#	c #B04DD1",
"/#	c #B24AC6",
"(#	c #881891",
"_#	c #85118C",
":#	c #5E154A",
"<#	c #342841",
"[#	c #895A9A",
"}#	c #8E08B6",
"|#	c #6D155F",
"1#	c #301400",
"2#	c #340244",
"3#	c #780C8C",
"4#	c #180B1D",
"5#	c #7E508F",
"6#	c #F0E4B8",
"7#	c #64184A",
"                                              . + @                         # #                 ",
"                                        $ % & * = - ;                       > , ' )             ",
"                      ! ~ { ]         $ $ ^ = / ( ( _ :                     , , <               ",
"          $ $ $ $ $ $ $ $ $ [ } $ $ | $ 1 2 3 ( / # _ 4 5                 : 6 7 8               ",
"      $ $ $ $ $ $ $ $ $ $ $ $ $ $ $ $ $ $ $ $ $ $ 9 0 a b 5               8 6 c d               ",
"    $ $ $ $ $ $ $ $ $ $ $ $ $ $ $ $ $ $ $ $ $ $ $ $ $ $ $ e ]           ] 8 f c                 ",
"    $ $ $ $ $ $ $ $ $ $ $ $ $ $ $ $ $ $ $ $ $ g h $ $ $ $ i 7 ]         * j k l $               ",
"  $ $ $ $ $ $       m + 5 f n o $ p c q q r s t u v u w x y z 7         A B C $ $               ",
"                D E * F n G H $ I q q J K L ~ M N O u w x P Q - 8       R S T $ $               ",
"            U + V W X G Y Z `  .Z ..+.@.#.$.%.&.x *.u w x x   =.-.s   ;.j >.$ $ $               ",
"        U ,.'.W ).> 6 q c !.$ ~.{.].^./.#.$.~ (._.*.*.:.u x <.[._ }.; A |.$ $ $ $               ",
"    U + V 1.W ).W '.2.q 3.$ 4.5.6.7.^./.#.$.~ (._.*.*.*.*.:.D   # - 8.9.$ $ $ $ $               ",
"  0.a.1.W 1.W W '.b.c.d.$ e.f.6.6.7.^./.#.$.~ U P _._.*.*.u x <.v # g.h.$ $ $ $                 ",
"  _.i.g.1.W g.b.j.j.j.k.$ l.m.6.6.7.^./.#.$.n.o.p.p.*.u x x x L v M q.$ $ $ $ $                 ",
"  n.6.;.1.1.r.j.j.j.s.$ $ t.D 6.6.7.^./.D F u.u.x ! u t x x ! <.v ,.v.$ $ $ w.                  ",
"    M x.y.W z.M j.j.A.$ B.C.{ O 6.7._.C.@.u <.o._.*.].&.x x D D D D.$ $ $ E.7                   ",
"      t i.g.).Q C.s.$ $ F.G.D 6.6.~ 5.! M n.~ (.P H.@.%.x x L D D I.$ $ J.K.-.7     $ $ $       ",
"        0.L.M.W y N.$ $ O.m.m.~ P.t _.X n.u ~ t . N Q.n.{ x D <.R.$ $ g c.X - -.S.$ $ $ $       ",
"        O T.y.W ).$ $ $ U.u.{ u U ~ . H.x L ] { 5 P.M <.V.P.D <.W.$ X.Y.c.@.@ Z.$ $ $ $ $       ",
"          x `.g. +$ $ $ .+#.N V.~ p.p.C.@.%.<.<.P v ].G.V.5 <.  $ ++@+u.o.#+$+%+&+*+=+          ",
"            ~ -+;+$ $ $ $ >+*.  { U x v F F <.u.P.,+5.].'+x @.)+$ !+; u.~+{+$+P.y }.]+^+        ",
"  /+/+/+/+  n.x.(+_+_+_+:+<+>+V.[.t t Q.@.L d o.H.5 [+}+'+{ Q.|+1+< p.2+3+$ $ 4+Q.k }.5+].      ",
"    /+/+/+/+  U 6+:+/+7+8+$ $ 9+0+5 t Q.*.&.&.5 a+b+$ c+] P d+$ e++.O f+$ $ $ g+P.h+i+-.< ].    ",
"    /+/+/+/+/+  *.j+/+_+$ $ $ $ $ k+l+m+n+o+p+q+/+q+r+u.; s+t+$ u+v+w+O w+$ $ $ x+%.].8.}.y+    ",
"    /+/+/+/+/+/+z+A+/+_+$ $ $ $ q+q+B+$ $ $ q+/+/+C+D+E+  { |+$ 8+% F+O O % $ $ $ G+{ d H+I+J+K+",
"    /+/+  /+/+/+/+L+/+_+$ $ q+7+_+7+/+M+B+$ 7+/+/+/+/+N+] O+P+/+/+/+Q+R+O S+$ $ $ $ T+U+V+W+X+8 ",
"    /+/+    /+/+/+/+/+Y+Z+B+/+M+$ B+7+/+7+`+ @.@/++@Q.%.x @@/+B+#@$@/+%@O o.x+$ $ $ $ $ &@' J 5 ",
"    /+/+      /+/+/+/+*@;.=@/+-@;@>@,@/+/+'@] )@/+!@~@&.{@/+/+]@^@/@/+$@@.P.P.(@$ $ $ _@' :@].  ",
"    /+/+        /+/+/+<@T.[@/+}@|@~ ^.1@/+2@p.3@/+4@~@w 5@/+/+6@/+/@7@<.@.&.&.P.F.8@X+' :@5     ",
"    /+/+          /+/+/+U 9@/+/+0@+.^.a@/+b@u./+/++@u w c@/+/+d@e@<.<.e@f@&.&.5.:@5+' :@5       ",
"    /+/+            /+/+  g@/+/+h@i@j@1@/+k@l@/+/+m@n@o@a.p@/+/+/+q@q@r@s@@.,+:@t@]+:@5         ",
"  /+/+/+/+          /+/+  n.u@v@/+/+/+3@w@$.D x@/+/+/+y@a.z@A@/+/+/+B@C@,+D@E@E@E@:@5           ",
"                            M `.g.F@( |@C.$.~ (.G@H@u t V s <.o.!@I@Y |@J E@' ]+E@5             ",
"                              t J@K@L@M@N@O@P@Q@_.*.u + k : n R@D@n : D@E@}.' :@5     /+        ",
"                                S@T@/+/+U@V@/+/+W@X@@ 5 Y K : ] O M K t@}.5+:@:   /+/+/+        ",
"                                O Y@/+/+Z@< `@ #/+.#+#<.x x <.  o.G t@}.5+:@5       /+/+        ",
"                                  @#/+/+##( D@$#/+/+%#w x {@q@&#{.t@z 5+:@^+        /+/+        ",
"                                  /+/+/+Q ##- *#/+/+=#w @#/+/+/+-#z 5+:@5   /+/+/+/+/+/+        ",
"                                  /+/+/+y.Z@##U@/+/+%#;#@#P.>#/+/+,#:@^+  /+/+    /+/+/+        ",
"                                  /+/+/+'#)#!#/+/+B@+#w d ~#{#/+/+]#5     /+/+      /+/+        ",
"                                  /+/+/+^#/#(#_#:#<#_.[#/+/+M@}#/+/+    /+/+/+      /+/+        ",
"                                  /+/+/+n./.a./ ( 5+|@/+/+|#1#2#/+/+    /+/+/+      /+/+        ",
"                                  /+/+/+  O `.'.( ( ' /+/+3#4#5#/+/+/+    /+/+/+/+/+/+/+        ",
"                                /+/+/+/+/+  t 6#= =._ 7#/+/+/+/+/+/+/+/+    /+/+/+  /+/+/+      ",
"                                              ~ ;.=.( }.E@5#                                    ",
"                                              . `.r.1#E@^+                                      ",
"                                                U i.D@;                                         ",
"                                                  x ].                                          "};
